999
"DXF R12 Output" (www.mydxf.blogspot.com)
 0 
SECTION
 2 
HEADER
 9 
$ACADVER
 1 
AC1009
 9 
$EXTMIN
 10 
 0 
 20 
 0 
 9 
$EXTMAX
 10 
 8.5 
 20 
 11 
 0 
ENDSEC
 0 
SECTION
 2 
ENTITIES
0
LINE
8
Layer 1
10
105.000000
20
183.500000
11
102.363504
21
183.401039
0
LINE
8
Layer 1
10
102.363504
20
183.401039
11
99.768396
21
183.108041
0
LINE
8
Layer 1
10
99.768396
20
183.108041
11
97.223391
21
182.626829
0
LINE
8
Layer 1
10
97.223391
20
182.626829
11
94.737209
21
181.963229
0
LINE
8
Layer 1
10
94.737209
20
181.963229
11
92.318565
21
181.123064
0
LINE
8
Layer 1
10
92.318565
20
181.123064
11
89.976178
21
180.112161
0
LINE
8
Layer 1
10
89.976178
20
180.112161
11
87.718764
21
178.936344
0
LINE
8
Layer 1
10
87.718764
20
178.936344
11
85.555042
21
177.601436
0
LINE
8
Layer 1
10
85.555042
20
177.601436
11
83.493728
21
176.113264
0
LINE
8
Layer 1
10
83.493728
20
176.113264
11
81.543539
21
174.477652
0
LINE
8
Layer 1
10
81.543539
20
174.477652
11
79.713193
21
172.700424
0
LINE
8
Layer 1
10
79.713193
20
172.700424
11
78.011408
21
170.787406
0
LINE
8
Layer 1
10
78.011408
20
170.787406
11
76.446900
21
168.744422
0
LINE
8
Layer 1
10
76.446900
20
168.744422
11
75.028388
21
166.577296
0
LINE
8
Layer 1
10
75.028388
20
166.577296
11
73.764587
21
164.291854
0
LINE
8
Layer 1
10
73.764587
20
164.291854
11
72.664216
21
161.893920
0
LINE
8
Layer 1
10
72.664216
20
161.893920
11
71.746701
21
159.420245
0
LINE
8
Layer 1
10
71.746701
20
159.420245
11
71.024291
21
156.910552
0
LINE
8
Layer 1
10
71.024291
20
156.910552
11
70.494942
21
154.375122
0
LINE
8
Layer 1
10
70.494942
20
154.375122
11
70.156608
21
151.824240
0
LINE
8
Layer 1
10
70.156608
20
151.824240
11
70.007243
21
149.268188
0
LINE
8
Layer 1
10
70.007243
20
149.268188
11
70.044803
21
146.717249
0
LINE
8
Layer 1
10
70.044803
20
146.717249
11
70.267243
21
144.181705
0
LINE
8
Layer 1
10
70.267243
20
144.181705
11
70.672515
21
141.671839
0
LINE
8
Layer 1
10
70.672515
20
141.671839
11
71.258576
21
139.197934
0
LINE
8
Layer 1
10
71.258576
20
139.197934
11
72.023380
21
136.770273
0
LINE
8
Layer 1
10
72.023380
20
136.770273
11
72.964881
21
134.399138
0
LINE
8
Layer 1
10
72.964881
20
134.399138
11
74.081035
21
132.094813
0
LINE
8
Layer 1
10
74.081035
20
132.094813
11
75.369795
21
129.867581
0
LINE
8
Layer 1
10
75.369795
20
129.867581
11
76.829117
21
127.727723
0
LINE
8
Layer 1
10
76.829117
20
127.727723
11
78.456954
21
125.685522
0
LINE
8
Layer 1
10
78.456954
20
125.685522
11
80.251263
21
123.751263
0
LINE
8
Layer 1
10
80.251263
20
123.751263
11
82.185522
21
121.956954
0
LINE
8
Layer 1
10
82.185522
20
121.956954
11
84.227723
21
120.329117
0
LINE
8
Layer 1
10
84.227723
20
120.329117
11
86.367581
21
118.869795
0
LINE
8
Layer 1
10
86.367581
20
118.869795
11
88.594813
21
117.581035
0
LINE
8
Layer 1
10
88.594813
20
117.581035
11
90.899138
21
116.464881
0
LINE
8
Layer 1
10
90.899138
20
116.464881
11
93.270273
21
115.523380
0
LINE
8
Layer 1
10
93.270273
20
115.523380
11
95.697934
21
114.758576
0
LINE
8
Layer 1
10
95.697934
20
114.758576
11
98.171839
21
114.172515
0
LINE
8
Layer 1
10
98.171839
20
114.172515
11
100.681705
21
113.767243
0
LINE
8
Layer 1
10
100.681705
20
113.767243
11
103.217249
21
113.544803
0
LINE
8
Layer 1
10
103.217249
20
113.544803
11
105.768188
21
113.507243
0
LINE
8
Layer 1
10
105.768188
20
113.507243
11
108.324240
21
113.656608
0
LINE
8
Layer 1
10
108.324240
20
113.656608
11
110.875122
21
113.994942
0
LINE
8
Layer 1
10
110.875122
20
113.994942
11
113.410552
21
114.524291
0
LINE
8
Layer 1
10
113.410552
20
114.524291
11
115.920245
21
115.246701
0
LINE
8
Layer 1
10
115.920245
20
115.246701
11
118.393920
21
116.164216
0
LINE
8
Layer 1
10
118.393920
20
116.164216
11
120.791854
21
117.264587
0
LINE
8
Layer 1
10
120.791854
20
117.264587
11
123.077296
21
118.528388
0
LINE
8
Layer 1
10
123.077296
20
118.528388
11
125.244422
21
119.946900
0
LINE
8
Layer 1
10
125.244422
20
119.946900
11
127.287406
21
121.511408
0
LINE
8
Layer 1
10
127.287406
20
121.511408
11
129.200424
21
123.213193
0
LINE
8
Layer 1
10
129.200424
20
123.213193
11
130.977652
21
125.043539
0
LINE
8
Layer 1
10
130.977652
20
125.043539
11
132.613264
21
126.993728
0
LINE
8
Layer 1
10
132.613264
20
126.993728
11
134.101436
21
129.055042
0
LINE
8
Layer 1
10
134.101436
20
129.055042
11
135.436344
21
131.218764
0
LINE
8
Layer 1
10
135.436344
20
131.218764
11
136.612161
21
133.476178
0
LINE
8
Layer 1
10
136.612161
20
133.476178
11
137.623064
21
135.818565
0
LINE
8
Layer 1
10
137.623064
20
135.818565
11
138.463229
21
138.237209
0
LINE
8
Layer 1
10
138.463229
20
138.237209
11
139.126829
21
140.723391
0
LINE
8
Layer 1
10
139.126829
20
140.723391
11
139.608041
21
143.268396
0
LINE
8
Layer 1
10
139.608041
20
143.268396
11
139.901039
21
145.863504
0
LINE
8
Layer 1
10
139.901039
20
145.863504
11
140.000000
21
148.500000
0
LINE
8
Layer 1
10
140.000000
20
148.500000
11
139.828733
21
151.959320
0
LINE
8
Layer 1
10
139.828733
20
151.959320
11
139.321271
21
155.360047
0
LINE
8
Layer 1
10
139.321271
20
155.360047
11
138.487119
21
158.679230
0
LINE
8
Layer 1
10
138.487119
20
158.679230
11
137.335784
21
161.893920
0
LINE
8
Layer 1
10
137.335784
20
161.893920
11
135.876772
21
164.981166
0
LINE
8
Layer 1
10
135.876772
20
164.981166
11
134.119589
21
167.918018
0
LINE
8
Layer 1
10
134.119589
20
167.918018
11
132.073742
21
170.681525
0
LINE
8
Layer 1
10
132.073742
20
170.681525
11
129.748737
21
173.248737
0
LINE
8
Layer 1
10
129.748737
20
173.248737
11
127.181525
21
175.573742
0
LINE
8
Layer 1
10
127.181525
20
175.573742
11
124.418018
21
177.619589
0
LINE
8
Layer 1
10
124.418018
20
177.619589
11
121.481166
21
179.376772
0
LINE
8
Layer 1
10
121.481166
20
179.376772
11
118.393920
21
180.835784
0
LINE
8
Layer 1
10
118.393920
20
180.835784
11
115.179230
21
181.987119
0
LINE
8
Layer 1
10
115.179230
20
181.987119
11
111.860047
21
182.821271
0
LINE
8
Layer 1
10
111.860047
20
182.821271
11
108.459320
21
183.328733
0
LINE
8
Layer 1
10
108.459320
20
183.328733
11
105.000000
21
183.500000
0
LINE
8
Layer 1
10
105.000000
20
183.500000
11
105.000000
21
183.500000
0
LINE
8
Layer 1
10
103.607870
20
146.835870
11
103.270672
21
147.277636
0
LINE
8
Layer 1
10
103.270672
20
147.277636
11
103.071355
21
147.786685
0
LINE
8
Layer 1
10
103.071355
20
147.786685
11
103.017703
21
148.330624
0
LINE
8
Layer 1
10
103.017703
20
148.330624
11
103.117500
21
148.877060
0
LINE
8
Layer 1
10
103.117500
20
148.877060
11
103.446525
21
149.480634
0
LINE
8
Layer 1
10
103.446525
20
149.480634
11
103.949540
21
149.928815
0
LINE
8
Layer 1
10
103.949540
20
149.928815
11
104.570575
21
150.186459
0
LINE
8
Layer 1
10
104.570575
20
150.186459
11
105.253660
21
150.218420
0
LINE
8
Layer 1
10
105.253660
20
150.218420
11
105.862427
21
150.037045
0
LINE
8
Layer 1
10
105.862427
20
150.037045
11
106.370739
21
149.685635
0
LINE
8
Layer 1
10
106.370739
20
149.685635
11
106.747071
21
149.194223
0
LINE
8
Layer 1
10
106.747071
20
149.194223
11
106.959900
21
148.592840
0
LINE
8
Layer 1
10
106.959900
20
148.592840
11
106.953900
21
147.872750
0
LINE
8
Layer 1
10
106.953900
20
147.872750
11
106.655970
21
147.149610
0
LINE
8
Layer 1
10
106.655970
20
147.149610
11
106.373290
21
146.808970
0
LINE
8
Layer 1
10
106.373290
20
146.808970
11
106.324490
21
146.764870
0
LINE
8
Layer 1
10
106.324490
20
146.764870
11
105.002340
21
146.764870
0
LINE
8
Layer 1
10
105.002340
20
146.764870
11
103.680200
21
146.764870
0
LINE
8
Layer 1
10
103.680200
20
146.764870
11
103.607870
21
146.835870
0
LINE
8
Layer 1
10
140.000000
20
111.383320
11
70.000000
21
111.383320
0
LINE
8
Layer 1
10
142.116680
20
113.500000
11
142.116680
21
183.500000
0
LINE
8
Layer 1
10
150.909340
20
150.068780
11
149.864450
21
148.106110
0
LINE
8
Layer 1
10
149.864450
20
148.106110
11
149.532680
21
148.106110
0
LINE
8
Layer 1
10
149.532680
20
148.106110
11
150.644240
21
150.143190
0
LINE
8
Layer 1
10
150.644240
20
150.143190
11
149.329600
21
150.143190
0
LINE
8
Layer 1
10
149.329600
20
150.143190
11
149.329600
21
150.414500
0
LINE
8
Layer 1
10
149.329600
20
150.414500
11
150.909340
21
150.414500
0
LINE
8
Layer 1
10
150.909340
20
150.414500
11
150.909340
21
150.068780
0
LINE
8
Layer 1
10
153.792890
20
148.214630
11
153.515390
21
148.106110
0
LINE
8
Layer 1
10
153.515390
20
148.106110
11
153.237880
21
148.067310
0
LINE
8
Layer 1
10
153.237880
20
148.067310
11
152.893720
21
148.121610
0
LINE
8
Layer 1
10
152.893720
20
148.121610
11
152.625520
21
148.289040
0
LINE
8
Layer 1
10
152.625520
20
148.289040
11
152.450340
21
148.571200
0
LINE
8
Layer 1
10
152.450340
20
148.571200
11
152.388340
21
148.969620
0
LINE
8
Layer 1
10
152.388340
20
148.969620
11
152.620890
21
149.636250
0
LINE
8
Layer 1
10
152.620890
20
149.636250
11
153.237900
21
149.878090
0
LINE
8
Layer 1
10
153.237900
20
149.878090
11
153.529360
21
149.836290
0
LINE
8
Layer 1
10
153.529360
20
149.836290
11
153.792910
21
149.733970
0
LINE
8
Layer 1
10
153.792910
20
149.733970
11
153.792910
21
149.409960
0
LINE
8
Layer 1
10
153.792910
20
149.409960
11
153.777410
21
149.409960
0
LINE
8
Layer 1
10
153.777410
20
149.409960
11
153.501450
21
149.569640
0
LINE
8
Layer 1
10
153.501450
20
149.569640
11
153.225500
21
149.625440
0
LINE
8
Layer 1
10
153.225500
20
149.625440
11
152.833280
21
149.458010
0
LINE
8
Layer 1
10
152.833280
20
149.458010
11
152.690650
21
148.969660
0
LINE
8
Layer 1
10
152.690650
20
148.969660
11
152.830180
21
148.487520
0
LINE
8
Layer 1
10
152.830180
20
148.487520
11
153.225500
21
148.320090
0
LINE
8
Layer 1
10
153.225500
20
148.320090
11
153.405340
21
148.343290
0
LINE
8
Layer 1
10
153.405340
20
148.343290
11
153.569670
21
148.403790
0
LINE
8
Layer 1
10
153.569670
20
148.403790
11
153.689040
21
148.471990
0
LINE
8
Layer 1
10
153.689040
20
148.471990
11
153.777440
21
148.535590
0
LINE
8
Layer 1
10
153.777440
20
148.535590
11
153.792940
21
148.535590
0
LINE
8
Layer 1
10
153.792940
20
148.535590
11
153.792890
21
148.214630
0
LINE
8
Layer 1
10
156.693490
20
148.106110
11
156.402030
21
148.106110
0
LINE
8
Layer 1
10
156.402030
20
148.106110
11
156.402030
21
149.092100
0
LINE
8
Layer 1
10
156.402030
20
149.092100
11
156.391130
21
149.307590
0
LINE
8
Layer 1
10
156.391130
20
149.307590
11
156.349230
21
149.473470
0
LINE
8
Layer 1
10
156.349230
20
149.473470
11
156.246910
21
149.574240
0
LINE
8
Layer 1
10
156.246910
20
149.574240
11
156.054680
21
149.608340
0
LINE
8
Layer 1
10
156.054680
20
149.608340
11
155.809730
21
149.546340
0
LINE
8
Layer 1
10
155.809730
20
149.546340
11
155.564780
21
149.391310
0
LINE
8
Layer 1
10
155.564780
20
149.391310
11
155.572780
21
149.307610
0
LINE
8
Layer 1
10
155.572780
20
149.307610
11
155.575780
21
149.214610
0
LINE
8
Layer 1
10
155.575780
20
149.214610
11
155.575780
21
148.106150
0
LINE
8
Layer 1
10
155.575780
20
148.106150
11
155.284320
21
148.106150
0
LINE
8
Layer 1
10
155.284320
20
148.106150
11
155.284320
21
149.092140
0
LINE
8
Layer 1
10
155.284320
20
149.092140
11
155.273420
21
149.309180
0
LINE
8
Layer 1
10
155.273420
20
149.309180
11
155.231520
21
149.475060
0
LINE
8
Layer 1
10
155.231520
20
149.475060
11
155.129200
21
149.574260
0
LINE
8
Layer 1
10
155.129200
20
149.574260
11
154.936970
21
149.608360
0
LINE
8
Layer 1
10
154.936970
20
149.608360
11
154.696670
21
149.549460
0
LINE
8
Layer 1
10
154.696670
20
149.549460
11
154.457930
21
149.399080
0
LINE
8
Layer 1
10
154.457930
20
149.399080
11
154.457930
21
148.106140
0
LINE
8
Layer 1
10
154.457930
20
148.106140
11
154.166470
21
148.106140
0
LINE
8
Layer 1
10
154.166470
20
148.106140
11
154.166470
21
149.837820
0
LINE
8
Layer 1
10
154.166470
20
149.837820
11
154.457930
21
149.837820
0
LINE
8
Layer 1
10
154.457930
20
149.837820
11
154.457930
21
149.645580
0
LINE
8
Layer 1
10
154.457930
20
149.645580
11
154.729230
21
149.822310
0
LINE
8
Layer 1
10
154.729230
20
149.822310
11
155.019130
21
149.885910
0
LINE
8
Layer 1
10
155.019130
20
149.885910
11
155.318340
21
149.811510
0
LINE
8
Layer 1
10
155.318340
20
149.811510
11
155.502820
21
149.605320
0
LINE
8
Layer 1
10
155.502820
20
149.605320
11
155.825280
21
149.819260
0
LINE
8
Layer 1
10
155.825280
20
149.819260
11
156.136890
21
149.885960
0
LINE
8
Layer 1
10
156.136890
20
149.885960
11
156.557020
21
149.712320
0
LINE
8
Layer 1
10
156.557020
20
149.712320
11
156.693450
21
149.230180
0
LINE
8
Layer 1
10
156.693450
20
149.230180
11
156.693490
21
148.106110
0
LINE
8
Layer 1
10
105.807880
20
109.694100
11
104.762980
21
107.731430
0
LINE
8
Layer 1
10
104.762980
20
107.731430
11
104.431220
21
107.731430
0
LINE
8
Layer 1
10
104.431220
20
107.731430
11
105.542780
21
109.768510
0
LINE
8
Layer 1
10
105.542780
20
109.768510
11
104.228130
21
109.768510
0
LINE
8
Layer 1
10
104.228130
20
109.768510
11
104.228130
21
110.039820
0
LINE
8
Layer 1
10
104.228130
20
110.039820
11
105.807880
21
110.039820
0
LINE
8
Layer 1
10
105.807880
20
110.039820
11
105.807880
21
109.694100
0
LINE
8
Layer 1
10
108.691430
20
107.839950
11
108.413920
21
107.731430
0
LINE
8
Layer 1
10
108.413920
20
107.731430
11
108.136420
21
107.692630
0
LINE
8
Layer 1
10
108.136420
20
107.692630
11
107.792260
21
107.746930
0
LINE
8
Layer 1
10
107.792260
20
107.746930
11
107.524060
21
107.914360
0
LINE
8
Layer 1
10
107.524060
20
107.914360
11
107.348870
21
108.196520
0
LINE
8
Layer 1
10
107.348870
20
108.196520
11
107.286870
21
108.594940
0
LINE
8
Layer 1
10
107.286870
20
108.594940
11
107.519410
21
109.261570
0
LINE
8
Layer 1
10
107.519410
20
109.261570
11
108.136430
21
109.503410
0
LINE
8
Layer 1
10
108.136430
20
109.503410
11
108.427890
21
109.461510
0
LINE
8
Layer 1
10
108.427890
20
109.461510
11
108.691440
21
109.359190
0
LINE
8
Layer 1
10
108.691440
20
109.359190
11
108.691440
21
109.035180
0
LINE
8
Layer 1
10
108.691440
20
109.035180
11
108.675940
21
109.035180
0
LINE
8
Layer 1
10
108.675940
20
109.035180
11
108.399990
21
109.194860
0
LINE
8
Layer 1
10
108.399990
20
109.194860
11
108.124040
21
109.250660
0
LINE
8
Layer 1
10
108.124040
20
109.250660
11
107.731810
21
109.083230
0
LINE
8
Layer 1
10
107.731810
20
109.083230
11
107.589190
21
108.594880
0
LINE
8
Layer 1
10
107.589190
20
108.594880
11
107.728710
21
108.112740
0
LINE
8
Layer 1
10
107.728710
20
108.112740
11
108.124040
21
107.945310
0
LINE
8
Layer 1
10
108.124040
20
107.945310
11
108.303870
21
107.968510
0
LINE
8
Layer 1
10
108.303870
20
107.968510
11
108.468200
21
108.029010
0
LINE
8
Layer 1
10
108.468200
20
108.029010
11
108.587580
21
108.097210
0
LINE
8
Layer 1
10
108.587580
20
108.097210
11
108.675980
21
108.160810
0
LINE
8
Layer 1
10
108.675980
20
108.160810
11
108.691480
21
108.160810
0
LINE
8
Layer 1
10
108.691480
20
108.160810
11
108.691430
21
107.839950
0
LINE
8
Layer 1
10
111.592020
20
107.731430
11
111.300570
21
107.731430
0
LINE
8
Layer 1
10
111.300570
20
107.731430
11
111.300570
21
108.717420
0
LINE
8
Layer 1
10
111.300570
20
108.717420
11
111.289770
21
108.932910
0
LINE
8
Layer 1
10
111.289770
20
108.932910
11
111.247870
21
109.098790
0
LINE
8
Layer 1
10
111.247870
20
109.098790
11
111.145550
21
109.199560
0
LINE
8
Layer 1
10
111.145550
20
109.199560
11
110.953310
21
109.233660
0
LINE
8
Layer 1
10
110.953310
20
109.233660
11
110.708370
21
109.171660
0
LINE
8
Layer 1
10
110.708370
20
109.171660
11
110.463420
21
109.016630
0
LINE
8
Layer 1
10
110.463420
20
109.016630
11
110.471420
21
108.932930
0
LINE
8
Layer 1
10
110.471420
20
108.932930
11
110.474420
21
108.839930
0
LINE
8
Layer 1
10
110.474420
20
108.839930
11
110.474420
21
107.731470
0
LINE
8
Layer 1
10
110.474420
20
107.731470
11
110.182970
21
107.731470
0
LINE
8
Layer 1
10
110.182970
20
107.731470
11
110.182970
21
108.717460
0
LINE
8
Layer 1
10
110.182970
20
108.717460
11
110.172070
21
108.934500
0
LINE
8
Layer 1
10
110.172070
20
108.934500
11
110.130170
21
109.100380
0
LINE
8
Layer 1
10
110.130170
20
109.100380
11
110.027850
21
109.199580
0
LINE
8
Layer 1
10
110.027850
20
109.199580
11
109.835610
21
109.233680
0
LINE
8
Layer 1
10
109.835610
20
109.233680
11
109.595320
21
109.174780
0
LINE
8
Layer 1
10
109.595320
20
109.174780
11
109.356570
21
109.024400
0
LINE
8
Layer 1
10
109.356570
20
109.024400
11
109.356570
21
107.731460
0
LINE
8
Layer 1
10
109.356570
20
107.731460
11
109.065120
21
107.731460
0
LINE
8
Layer 1
10
109.065120
20
107.731460
11
109.065120
21
109.463140
0
LINE
8
Layer 1
10
109.065120
20
109.463140
11
109.356570
21
109.463140
0
LINE
8
Layer 1
10
109.356570
20
109.463140
11
109.356570
21
109.270900
0
LINE
8
Layer 1
10
109.356570
20
109.270900
11
109.627870
21
109.447630
0
LINE
8
Layer 1
10
109.627870
20
109.447630
11
109.917780
21
109.511230
0
LINE
8
Layer 1
10
109.917780
20
109.511230
11
110.216980
21
109.436830
0
LINE
8
Layer 1
10
110.216980
20
109.436830
11
110.401470
21
109.230640
0
LINE
8
Layer 1
10
110.401470
20
109.230640
11
110.723930
21
109.444580
0
LINE
8
Layer 1
10
110.723930
20
109.444580
11
111.035540
21
109.511280
0
LINE
8
Layer 1
10
111.035540
20
109.511280
11
111.455670
21
109.337640
0
LINE
8
Layer 1
10
111.455670
20
109.337640
11
111.592090
21
108.855500
0
LINE
8
Layer 1
10
111.592090
20
108.855500
11
111.592020
21
107.731430
 0 
ENDSEC
 0 
EOF